<svg xmlns:dc="http://purl.org/dc/elements/1.1/" xmlns:cc="http://creativecommons.org/ns#" xmlns:rdf="http://www.w3.org/1999/02/22-rdf-syntax-ns#" xmlns:svg="http://www.w3.org/2000/svg" xmlns="http://www.w3.org/2000/svg" xml:space="preserve" id="svg2" version="1.1" viewBox="96.65 81.02 615.43 478.22"><metadata id="metadata8"><rdf:RDF><cc:Work rdf:about=""><dc:format>image/svg+xml</dc:format><dc:type rdf:resource="http://purl.org/dc/dcmitype/StillImage"/></cc:Work></rdf:RDF></metadata><defs id="defs6"><linearGradient id="linearGradient28" spreadMethod="pad" gradientTransform="matrix(64.647125,0,0,64.647125,269.94836,296.11765)" gradientUnits="userSpaceOnUse" y2="0" x2="1" y1="0" x1="0"><stop id="stop24" offset="0" style="stop-opacity:1;stop-color:#5ac0cd"/><stop id="stop26" offset="1" style="stop-opacity:1;stop-color:#2565a3"/></linearGradient><linearGradient id="linearGradient48" spreadMethod="pad" gradientTransform="matrix(136.43437,78.770416,-78.770416,136.43437,284.15604,293.06369)" gradientUnits="userSpaceOnUse" y2="0" x2="1" y1="0" x1="0"><stop id="stop44" offset="0" style="stop-opacity:1;stop-color:#5ac0cd"/><stop id="stop46" offset="1" style="stop-opacity:1;stop-color:#2565a3"/></linearGradient><linearGradient id="linearGradient68" spreadMethod="pad" gradientTransform="matrix(-234.0052,0,0,-234.0052,443.47156,265.24454)" gradientUnits="userSpaceOnUse" y2="0" x2="1" y1="0" x1="0"><stop id="stop64" offset="0" style="stop-opacity:1;stop-color:#5ac0cd"/><stop id="stop66" offset="1" style="stop-opacity:1;stop-color:#2565a3"/></linearGradient><clipPath id="clipPath78" clipPathUnits="userSpaceOnUse"><path id="path76" d="m 179.156,295.291 c 0,-67.045 53.158,-121.674 119.625,-124.042 v 0 h 8.992 c 66.466,2.368 119.626,56.997 119.626,124.042 v 0 c 0,68.55 -55.572,124.121 -124.122,124.121 v 0 c -68.551,0 -124.121,-55.571 -124.121,-124.121"/></clipPath><linearGradient id="linearGradient104" spreadMethod="pad" gradientTransform="matrix(-136.43437,-78.770416,78.770416,-136.43437,322.02521,298.51147)" gradientUnits="userSpaceOnUse" y2="0" x2="1" y1="0" x1="0"><stop id="stop100" offset="0" style="stop-opacity:1;stop-color:#5ac0cd"/><stop id="stop102" offset="1" style="stop-opacity:1;stop-color:#2565a3"/></linearGradient><linearGradient id="linearGradient124" spreadMethod="pad" gradientTransform="matrix(142.23402,0,0,142.23402,163.74367,315.61597)" gradientUnits="userSpaceOnUse" y2="0" x2="1" y1="0" x1="0"><stop id="stop120" offset="0" style="stop-opacity:1;stop-color:#5ac0cd"/><stop id="stop122" offset="1" style="stop-opacity:1;stop-color:#2565a3"/></linearGradient><clipPath id="clipPath134" clipPathUnits="userSpaceOnUse"><path id="path132" d="M 0,480.189 H 606.555 V 0 H 0 Z"/></clipPath></defs><g transform="matrix(1.3333333,0,0,-1.3333333,0,640.252)" id="g10"><g id="g12"><g id="g14"><g id="g20"><g id="g22"><path id="path30" style="fill:url(#linearGradient28);stroke:none" d="m 269.949,296.118 c 0,-17.852 14.472,-32.324 32.322,-32.324 v 0 c 17.853,0 32.325,14.472 32.325,32.324 v 0 c 0,17.851 -14.472,32.323 -32.325,32.323 v 0 c -17.85,0 -32.322,-14.472 -32.322,-32.323 m 13.861,0 c 0,10.196 8.266,18.463 18.461,18.463 v 0 c 10.197,0 18.464,-8.267 18.464,-18.463 v 0 c 0,-10.197 -8.267,-18.463 -18.464,-18.463 v 0 c -10.195,0 -18.461,8.266 -18.461,18.463"/></g></g></g></g><g id="g32"><g id="g34"><g id="g40"><g id="g42"><path id="path50" style="fill:url(#linearGradient48);stroke:none" d="M 237.983,400.87 C 367.582,365.229 397.241,267.646 404.013,222.759 v 0 c 14.717,20.403 23.386,45.453 23.386,72.532 v 0 c 0,68.55 -55.572,124.121 -124.122,124.121 v 0 c -23.958,0 -46.325,-6.784 -65.294,-18.542"/></g></g></g></g><g id="g52"><g id="g54"><g id="g60"><g id="g62"><path id="path70" style="fill:url(#linearGradient68);stroke:none" d="m 229.925,195.152 c 19.421,-14.251 43.141,-22.987 68.854,-23.903 v 0 h 8.994 c 66.466,2.368 119.626,56.997 119.626,124.042 v 0 c 0,23.392 -6.47,45.273 -17.721,63.949 v 0 C 372.924,228.686 273.178,200.998 229.925,195.152"/></g></g></g></g><g id="g72"><g clip-path="url(#clipPath78)" id="g74"><g transform="translate(414.1148,379.2279)" id="g80"><path id="path82" style="fill:#e3881f;fill-opacity:1;fill-rule:nonzero;stroke:none" d="M 0,0 -0.012,-0.011 C -0.009,-0.014 -0.007,-0.016 -0.004,-0.02 -0.003,-0.013 -0.001,-0.007 0,0"/></g><g transform="translate(200.9734,192.4674)" id="g84"><path id="path86" style="fill:#e3881f;fill-opacity:1;fill-rule:nonzero;stroke:none" d="M 0,0 H 0.018 C 0.016,0.002 0.012,0.006 0.009,0.008 Z"/></g></g></g><g id="g88"><g id="g90"><g id="g96"><g id="g98"><path id="path106" style="fill:url(#linearGradient104);stroke:none" d="m 179.156,295.291 c 0,-67.045 53.158,-121.674 119.625,-124.042 v 0 h 8.991 c 21.973,0.782 42.492,7.276 60.116,18.042 v 0 C 237.507,225.836 209.818,325.814 203.973,369.767 v 0 c -15.584,-20.745 -24.817,-46.532 -24.817,-74.476"/></g></g></g></g><g id="g108"><g id="g110"><g id="g116"><g id="g118"><path id="path126" style="fill:url(#linearGradient124);stroke:none" d="m 179.156,295.291 c 0,-23.807 6.705,-46.053 18.326,-64.946 v 0 c 22.043,78.506 66.845,119.851 108.495,141.63 v 0 c -19.12,11.895 -41.381,21.657 -67.968,28.911 v 0 c -35.324,-21.88 -58.853,-60.989 -58.853,-105.595"/></g></g></g></g><g id="g128"><g clip-path="url(#clipPath134)" id="g130"><g transform="translate(91.0435,110.3769)" id="g136"><path id="path138" style="fill:#233f55;fill-opacity:1;fill-rule:nonzero;stroke:none" d="m 0,0 h -15.662 c -1.586,0 -2.873,1.286 -2.873,2.873 v 6.611 c 0,1.586 1.287,2.873 2.873,2.873 h 44.724 c 1.587,0 2.873,-1.287 2.873,-2.873 V 2.873 C 31.935,1.286 30.649,0 29.062,0 H 13.401 V -48.556 H 0 Z"/></g><g transform="translate(132.8838,119.8605)" id="g140"><path id="path142" style="fill:#233f55;fill-opacity:1;fill-rule:nonzero;stroke:none" d="M 0,0 C 0,1.587 1.286,2.873 2.873,2.873 H 28.17 c 7.745,0 13.749,-2.176 17.752,-6.179 3.393,-3.393 5.221,-8.179 5.221,-13.922 v -0.174 c 0,-9.833 -5.308,-16.011 -13.053,-18.883 L 52.97,-58.039 H 38.841 c -0.958,0 -1.854,0.478 -2.387,1.274 l -12.2,18.218 H 13.726 V -58.039 H 0 Z m 27.301,-26.713 c 6.525,0 10.267,3.481 10.267,8.615 v 0.174 c 0,5.743 -4.003,8.701 -10.529,8.701 H 13.726 v -17.49 z"/></g><g transform="translate(199.5644,122.7334)" id="g144"><path id="path146" style="fill:#233f55;fill-opacity:1;fill-rule:nonzero;stroke:none" d="M 0,0 H 7.659 C 9.245,0 10.53,-1.285 10.53,-2.87 V -60.912 H -2.87 V -2.87 C -2.87,-1.285 -1.585,0 0,0"/></g><g transform="translate(221.4983,122.7334)" id="g148"><path id="path150" style="fill:#233f55;fill-opacity:1;fill-rule:nonzero;stroke:none" d="m 0,0 h 9.797 c 3.003,0 5.689,-1.868 6.734,-4.683 L 30.717,-42.9 44.902,-4.683 C 45.947,-1.868 48.633,0 51.635,0 h 9.451 L 36.46,-61.347 H 24.625 Z"/></g><g transform="translate(295.4271,122.7334)" id="g152"><path id="path154" style="fill:#233f55;fill-opacity:1;fill-rule:nonzero;stroke:none" d="m 0,0 h 7.655 c 1.587,0 2.873,-1.286 2.873,-2.873 V -60.912 H -2.873 V -2.873 C -2.873,-1.286 -1.587,0 0,0"/></g><g transform="translate(318.8253,72.9226)" id="g156"><path id="path158" style="fill:#233f55;fill-opacity:1;fill-rule:nonzero;stroke:none" d="m 0,0 4.286,5.134 c 0.973,1.165 2.681,1.361 3.906,0.463 4.849,-3.554 9.989,-5.734 16.056,-5.734 5.48,0 8.788,2.175 8.788,5.743 V 5.78 c 0,3.394 -2.088,5.134 -12.27,7.745 C 8.497,16.657 0.578,20.05 0.578,32.146 v 0.174 c 0,11.051 8.876,18.361 21.32,18.361 7.8,0 14.593,-2.151 20.318,-6.039 1.31,-0.89 1.623,-2.696 0.724,-4 l -3.793,-5.499 c -0.866,-1.255 -2.565,-1.609 -3.864,-0.808 -4.611,2.842 -9.15,4.512 -13.559,4.512 -5.134,0 -7.832,-2.35 -7.832,-5.309 v -0.174 c 0,-4.002 2.611,-5.308 13.139,-8.005 12.357,-3.22 19.318,-7.657 19.318,-18.274 V 6.911 c 0,-12.095 -9.224,-18.882 -22.364,-18.882 -8.279,0 -16.628,2.594 -23.538,7.845 C -0.851,-3.139 -1.045,-1.252 0,0"/></g><g transform="translate(380.2791,122.7334)" id="g160"><path id="path162" style="fill:#233f55;fill-opacity:1;fill-rule:nonzero;stroke:none" d="m 0,0 h 7.655 c 1.587,0 2.873,-1.286 2.873,-2.873 V -60.912 H -2.873 V -2.873 C -2.873,-1.286 -1.586,0 0,0"/></g><g transform="translate(403.2976,92.1034)" id="g164"><path id="path166" style="fill:#233f55;fill-opacity:1;fill-rule:nonzero;stroke:none" d="m 0,0 v 0.174 c 0,17.316 13.662,31.5 32.457,31.5 18.795,0 32.283,-14.01 32.283,-31.326 V 0.174 c 0,-17.317 -13.661,-31.5 -32.458,-31.5 C 13.487,-31.326 0,-17.317 0,0 m 50.731,0 v 0.174 c 0,10.442 -7.658,19.144 -18.449,19.144 -10.79,0 -18.272,-8.528 -18.272,-18.97 V 0.174 c 0,-10.442 7.656,-19.144 18.447,-19.144 10.79,0 18.274,8.528 18.274,18.97"/></g><g transform="translate(482.7954,122.7334)" id="g168"><path id="path170" style="fill:#233f55;fill-opacity:1;fill-rule:nonzero;stroke:none" d="m 0,0 h 8.059 c 0.897,0 1.743,-0.419 2.286,-1.133 L 38.024,-37.504 V -2.873 C 38.024,-1.286 39.31,0 40.897,0 h 7.481 c 1.587,0 2.873,-1.286 2.873,-2.873 V -60.912 H 39.852 L 10.353,-22.189 V -60.912 H -2.873 V -2.873 C -2.873,-1.286 -1.587,0 0,0"/></g></g></g></g></svg>